# xmcd
#
# Track frame offsets: 
#        183
#        14500
#        28770
#        42098
#        55105
#        71018
#        85405
#        96435
#        108718
#        120948
#        133970
#        147180
#        157778
#        171323
#
# Disc length: 2424 seconds
#
# Revision: 4
# Processed by: cddbd v1.5.2PL0 Copyright (c) Steve Scherf et al.
# Submitted via: ExactAudioCopy v0.95b3
#
DISCID=c109760e
DTITLE=Various Artist - *Country Gala Vol. 3*
DYEAR=1990
DGENRE=Country
TTITLE0=Don Williams - Amanda
TTITLE1=George Jones - Good Year For The Roses
TTITLE2=Tammy Wynette - Apartment No. 9
TTITLE3=Johnny Cash - San Quentin
TTITLE4=Lynn Anderson - For The Good Times
TTITLE5=Marty Robbins - Cool Water
TTITLE6=Billy Jo Spears - Here You Come Again
TTITLE7=Patsy Cline - Crazy
TTITLE8=Freddy Fender - Vaya Con Dios
TTITLE9=Conway - Twitty - The Image Of Me
TTITLE10=Charlie Rich - Behind Closed Doors
TTITLE11=The Marshall Tucker Band - Closer Today
TTITLE12=Sommerset - Almost Persuaded
TTITLE13=Nancy Sinatra and Lee Hazelwood - Oh Lonesome Me
EXTD=
EXTT0=
EXTT1=
EXTT2=
EXTT3=
EXTT4=
EXTT5=
EXTT6=
EXTT7=
EXTT8=
EXTT9=
EXTT10=
EXTT11=
EXTT12=
EXTT13=
PLAYORDER=
